<?xml version="1.0" encoding="UTF-8"?>
<svg width="123px" height="61px" viewBox="0 0 123 61" version="1.1" xmlns="http://www.w3.org/2000/svg" xmlns:xlink="http://www.w3.org/1999/xlink">
    <title>Frame (3)</title>
    <defs>
        <linearGradient x1="75.3381034%" y1="56.2128448%" x2="17.7648276%" y2="33.842%" id="linearGradient-1">
            <stop stop-color="#FF557E" offset="0%"></stop>
            <stop stop-color="#FF5555" stop-opacity="0" offset="84.1052%"></stop>
        </linearGradient>
        <linearGradient x1="25.0039655%" y1="60.8235345%" x2="40.3858621%" y2="34.1810603%" id="linearGradient-2">
            <stop stop-color="#58CCDC" offset="0%"></stop>
            <stop stop-color="#58CCDC" stop-opacity="0" offset="100%"></stop>
        </linearGradient>
        <radialGradient cx="78.4274138%" cy="120.831034%" fx="78.4274138%" fy="120.831034%" r="127.762069%" gradientTransform="translate(0.784274,1.208310),scale(0.500000,1.000000),rotate(-122.928000),translate(-0.784274,-1.208310)" id="radialGradient-3">
            <stop stop-color="#8263DB" offset="0%"></stop>
            <stop stop-color="#8172DA" stop-opacity="0.26" offset="56.8731%"></stop>
            <stop stop-color="#8172DA" stop-opacity="0" offset="100%"></stop>
        </radialGradient>
        <radialGradient cx="31.5553448%" cy="-14.4656207%" fx="31.5553448%" fy="-14.4656207%" r="86.0575862%" gradientTransform="translate(0.315553,-0.144656),scale(0.500000,1.000000),rotate(77.674500),translate(-0.315553,0.144656)" id="radialGradient-4">
            <stop stop-color="#41D1B7" offset="0%"></stop>
            <stop stop-color="#41D1B7" stop-opacity="0.35" offset="49.2704%"></stop>
            <stop stop-color="#41D1B7" stop-opacity="0" offset="100%"></stop>
        </radialGradient>
        <radialGradient cx="102.835517%" cy="-37.0503448%" fx="102.835517%" fy="-37.0503448%" r="93.49%" gradientTransform="translate(1.028355,-0.370503),scale(0.500000,1.000000),rotate(125.113000),translate(-1.028355,0.370503)" id="radialGradient-5">
            <stop stop-color="#FFEC45" offset="0%"></stop>
            <stop stop-color="#FFEC45" stop-opacity="0.3" offset="54.9191%"></stop>
            <stop stop-color="#FFEC45" stop-opacity="0" offset="96.1144%"></stop>
        </radialGradient>
    </defs>
    <g id="Page-1" stroke="none" stroke-width="1" fill="none" fill-rule="evenodd">
        <g id="Frame-(3)" fill-rule="nonzero">
            <polygon id="Path" fill="#333268" points="0.036377 54 11.3891 54 11.3891 50.7673 3.4982 50.7673 3.4982 35.6727 0.036377 35.6727"></polygon>
            <path d="M18.2113,54.3818 C19.5859,54.3818 20.795,54.0763 21.8386,53.4654 C22.8907,52.846 23.7095,51.9933 24.295,50.9073 C24.8889,49.8127 25.1859,48.5527 25.1859,47.1273 C25.1859,45.7103 24.8931,44.4588 24.3077,43.3727 C23.7222,42.2782 22.9034,41.4212 21.8513,40.8018 C20.8077,40.1824 19.5944,39.8727 18.2113,39.8727 C16.8537,39.8727 15.6531,40.1782 14.6095,40.7891 C13.5659,41.4 12.7471,42.2527 12.1531,43.3473 C11.5592,44.4333 11.2622,45.6933 11.2622,47.1273 C11.2622,48.5442 11.5507,49.8 12.1277,50.8945 C12.7131,51.9806 13.5277,52.8333 14.5713,53.4527 C15.615,54.0721 16.8283,54.3818 18.2113,54.3818 Z M18.2113,51.1491 C17.1337,51.1491 16.315,50.7885 15.755,50.0673 C15.2034,49.3376 14.9277,48.3576 14.9277,47.1273 C14.9277,45.9309 15.1907,44.9636 15.7168,44.2254 C16.2513,43.4788 17.0828,43.1054 18.2113,43.1054 C19.3059,43.1054 20.1289,43.4703 20.6804,44.2 C21.2404,44.9297 21.5204,45.9054 21.5204,47.1273 C21.5204,48.3067 21.2447,49.2739 20.6931,50.0291 C20.1501,50.7757 19.3228,51.1491 18.2113,51.1491 Z" id="Shape" fill="#333268"></path>
            <path d="M32.0319,54.3818 C32.6768,54.3818 33.2707,54.3054 33.8138,54.1527 C34.3653,54 34.8659,53.7836 35.3156,53.5036 L35.3156,54.8909 C35.3326,55.4 35.201,55.8242 34.921,56.1636 C34.6495,56.5115 34.2847,56.7703 33.8265,56.94 C33.3683,57.1182 32.8804,57.2073 32.3629,57.2073 C31.8792,57.2073 31.4295,57.1012 31.0138,56.8891 C30.6065,56.677 30.2925,56.3673 30.0719,55.96 L26.8647,57.5127 C27.3907,58.4036 28.1416,59.1206 29.1174,59.6636 C30.0932,60.2151 31.1665,60.4909 32.3374,60.4909 C33.3471,60.4909 34.2847,60.3551 35.1501,60.0836 C36.0156,59.8206 36.7453,59.4176 37.3392,58.8745 C37.9416,58.3315 38.3532,57.64 38.5738,56.8 C38.6501,56.503 38.701,56.2018 38.7265,55.8963 C38.7604,55.5994 38.7774,55.2812 38.7774,54.9418 L38.7774,40.2545 L35.7483,40.2545 L35.7483,41.0182 C35.2816,40.6533 34.7513,40.3733 34.1574,40.1782 C33.5719,39.9745 32.9229,39.8727 32.2101,39.8727 C30.895,39.8727 29.7495,40.1867 28.7738,40.8145 C27.798,41.4424 27.0386,42.3036 26.4956,43.3982 C25.961,44.4842 25.6938,45.7273 25.6938,47.1273 C25.6938,48.5018 25.9568,49.7363 26.4829,50.8309 C27.0174,51.9254 27.7598,52.7909 28.7101,53.4273 C29.6604,54.0636 30.7677,54.3818 32.0319,54.3818 Z M32.5919,51.3018 C31.8453,51.3018 31.2344,51.1151 30.7592,50.7418 C30.2841,50.3685 29.9319,49.8679 29.7029,49.24 C29.4738,48.6036 29.3592,47.8994 29.3592,47.1273 C29.3592,46.3636 29.478,45.6679 29.7156,45.04 C29.9532,44.4036 30.318,43.8988 30.8101,43.5254 C31.3107,43.1436 31.9471,42.9527 32.7192,42.9527 C33.8053,42.9527 34.5816,43.3388 35.0483,44.1109 C35.515,44.8745 35.7483,45.88 35.7483,47.1273 C35.7483,48.3745 35.5107,49.3842 35.0356,50.1563 C34.5689,50.92 33.7544,51.3018 32.5919,51.3018 Z" id="Shape" fill="#333268"></path>
            <path d="M46.9998,54.3818 C48.3744,54.3818 49.5835,54.0763 50.6271,53.4654 C51.6792,52.846 52.498,51.9933 53.0835,50.9073 C53.6774,49.8127 53.9744,48.5527 53.9744,47.1273 C53.9744,45.7103 53.6816,44.4588 53.0962,43.3727 C52.5107,42.2782 51.6919,41.4212 50.6398,40.8018 C49.5962,40.1824 48.3828,39.8727 46.9998,39.8727 C45.6422,39.8727 44.4416,40.1782 43.398,40.7891 C42.3544,41.4 41.5356,42.2527 40.9416,43.3473 C40.3477,44.4333 40.0507,45.6933 40.0507,47.1273 C40.0507,48.5442 40.3392,49.8 40.9162,50.8945 C41.5016,51.9806 42.3162,52.8333 43.3598,53.4527 C44.4035,54.0721 45.6168,54.3818 46.9998,54.3818 Z M46.9998,51.1491 C45.9222,51.1491 45.1034,50.7885 44.5434,50.0673 C43.9919,49.3376 43.7162,48.3576 43.7162,47.1273 C43.7162,45.9309 43.9792,44.9636 44.5053,44.2254 C45.0398,43.4788 45.8713,43.1054 46.9998,43.1054 C48.0944,43.1054 48.9174,43.4703 49.4689,44.2 C50.0289,44.9297 50.3089,45.9054 50.3089,47.1273 C50.3089,48.3067 50.0331,49.2739 49.4816,50.0291 C48.9386,50.7757 48.1113,51.1491 46.9998,51.1491 Z" id="Shape" fill="#333268"></path>
            <path d="M55.5004,38.3454 L58.9622,38.3454 L58.9622,35.2909 L55.5004,35.2909 L55.5004,38.3454 Z M55.5004,54 L58.9622,54 L58.9622,40.2545 L55.5004,40.2545 L55.5004,54 Z" id="Shape" fill="#333268"></path>
            <path d="M61.2251,60.1091 L64.7124,60.1091 L64.7124,53.5036 C65.1621,53.7836 65.6585,54 66.2015,54.1527 C66.753,54.3054 67.3512,54.3818 67.996,54.3818 C69.2603,54.3818 70.3676,54.0636 71.3179,53.4273 C72.2682,52.7909 73.0063,51.9254 73.5324,50.8309 C74.0669,49.7363 74.3342,48.5018 74.3342,47.1273 C74.3342,45.7273 74.0627,44.4842 73.5197,43.3982 C72.9851,42.3036 72.23,41.4424 71.2542,40.8145 C70.2785,40.1867 69.133,39.8727 67.8179,39.8727 C67.1051,39.8727 66.4518,39.9745 65.8578,40.1782 C65.2724,40.3733 64.7463,40.6533 64.2797,41.0182 L64.2797,40.2545 L61.2251,40.2545 L61.2251,60.1091 Z M67.436,51.3018 C66.2821,51.3018 65.4676,50.92 64.9924,50.1563 C64.5172,49.3842 64.2797,48.3745 64.2797,47.1273 C64.2797,45.88 64.513,44.8745 64.9797,44.1109 C65.4548,43.3388 66.2312,42.9527 67.3088,42.9527 C68.0809,42.9527 68.713,43.1436 69.2051,43.5254 C69.7057,43.8988 70.0748,44.4036 70.3124,45.04 C70.55,45.6679 70.6688,46.3636 70.6688,47.1273 C70.6688,47.8994 70.5542,48.6036 70.3251,49.24 C70.096,49.8679 69.7439,50.3685 69.2688,50.7418 C68.7936,51.1151 68.1827,51.3018 67.436,51.3018 Z" id="Shape" fill="#333268"></path>
            <path d="M80.6056,54.3818 C82.4044,54.3818 83.8128,53.9788 84.831,53.1727 C85.8492,52.3666 86.3583,51.2594 86.3583,49.8509 C86.3583,48.7818 86.0274,47.9376 85.3656,47.3182 C84.7122,46.6988 83.6007,46.1854 82.031,45.7782 C80.9619,45.5066 80.1644,45.286 79.6383,45.1163 C79.1207,44.9467 78.7771,44.7812 78.6074,44.62 C78.4462,44.4588 78.3656,44.2594 78.3656,44.0218 C78.3656,43.623 78.5565,43.3176 78.9383,43.1054 C79.3286,42.8933 79.8419,42.8085 80.4783,42.8509 C81.8274,42.9527 82.5656,43.5297 82.6928,44.5818 L86.231,43.9454 C86.0529,42.6982 85.4419,41.7097 84.3983,40.98 C83.3547,40.2418 82.0225,39.8727 80.4019,39.8727 C78.7389,39.8727 77.411,40.263 76.4183,41.0436 C75.4256,41.8242 74.9292,42.8763 74.9292,44.2 C74.9292,45.2521 75.2728,46.0836 75.9601,46.6945 C76.6474,47.297 77.831,47.8145 79.511,48.2473 C80.5038,48.5103 81.2335,48.7224 81.7001,48.8836 C82.1753,49.0448 82.4807,49.2103 82.6165,49.38 C82.7522,49.5412 82.8201,49.7576 82.8201,50.0291 C82.8201,50.4618 82.6504,50.8012 82.311,51.0473 C81.9716,51.2848 81.488,51.4036 80.8601,51.4036 C80.0965,51.4036 79.4644,51.2212 78.9638,50.8563 C78.4716,50.4915 78.1535,49.9867 78.0092,49.3418 L74.471,49.8763 C74.7001,51.3103 75.345,52.4218 76.4056,53.2109 C77.4747,53.9915 78.8747,54.3818 80.6056,54.3818 Z" id="Path" fill="#333268"></path>
            <path d="M92.7442,54.4073 C93.7369,54.4073 94.6024,54.2418 95.3406,53.9109 C96.0788,53.58 96.6982,53.1388 97.1988,52.5873 L97.1988,54 L100.253,54 L100.253,40.2545 L96.766,40.2545 L96.766,47.2291 C96.766,48.0776 96.6685,48.7648 96.4733,49.2909 C96.2866,49.8085 96.0448,50.203 95.7478,50.4745 C95.4509,50.7376 95.1327,50.9157 94.7933,51.0091 C94.4539,51.1024 94.1357,51.1491 93.8388,51.1491 C93.1006,51.1491 92.5278,50.9836 92.1206,50.6527 C91.7218,50.3218 91.4333,49.9103 91.2551,49.4182 C91.0769,48.926 90.9709,48.4382 90.9369,47.9545 C90.903,47.4624 90.886,47.0594 90.886,46.7454 L90.886,40.2545 L87.3733,40.2545 L87.3733,47.9673 C87.3733,48.1963 87.3903,48.5612 87.4242,49.0618 C87.4581,49.5624 87.5557,50.1182 87.7169,50.7291 C87.8782,51.3315 88.1454,51.9127 88.5188,52.4727 C88.9006,53.0327 89.4309,53.4951 90.1097,53.86 C90.7885,54.2248 91.6666,54.4073 92.7442,54.4073 Z" id="Path" fill="#333268"></path>
            <path d="M102.258,54 L105.745,54 L105.745,45.6763 C105.745,44.8873 105.961,44.2467 106.394,43.7545 C106.835,43.2539 107.416,43.0036 108.138,43.0036 C108.893,43.0036 109.483,43.2582 109.907,43.7673 C110.339,44.2679 110.556,44.9721 110.556,45.88 L110.556,54 L114.018,54 L114.018,45.6763 C114.018,44.8873 114.234,44.2467 114.667,43.7545 C115.108,43.2539 115.689,43.0036 116.41,43.0036 C117.166,43.0036 117.755,43.2582 118.179,43.7673 C118.612,44.2679 118.829,44.9721 118.829,45.88 L118.829,54 L122.29,54 L122.29,44.9636 C122.29,43.4618 121.887,42.2485 121.081,41.3236 C120.284,40.3903 119.1,39.9236 117.53,39.9236 C116.648,39.9236 115.838,40.1145 115.099,40.4963 C114.361,40.8782 113.772,41.4 113.33,42.0618 C112.974,41.417 112.465,40.8994 111.803,40.5091 C111.141,40.1188 110.318,39.9236 109.334,39.9236 C108.502,39.9236 107.739,40.0891 107.043,40.42 C106.347,40.7424 105.77,41.1879 105.312,41.7563 L105.312,40.2545 L102.258,40.2545 L102.258,54 Z" id="Path" fill="#333268"></path>
            <path d="M0,14.5 C0,6.49187 6.49187,0 14.5,0 C18.8417,0 22.7378,1.90824 25.3952,4.93177 C30.2168,10.345 34.2038,10.0602 38.4379,6.06395 C40.5154,4.10244 43.3173,2.9 46.4,2.9 C52.8065,2.90001 58,8.0935 58,14.5 C58,20.9065 52.8065,26.1 46.4,26.1 C43.3173,26.1 40.5154,24.8975 38.4379,22.936 C34.2048,18.9407 30.2187,18.655 25.3987,24.0642 C22.7412,27.0901 18.8436,29 14.5,29 C6.49187,29 0,22.5081 0,14.5 Z" id="Path" fill="#F2F5FA"></path>
            <path d="M0,14.5 C0,6.49187 6.49187,0 14.5,0 C18.8417,0 22.7378,1.90824 25.3952,4.93177 C30.2168,10.345 34.2038,10.0602 38.4379,6.06395 C40.5154,4.10244 43.3173,2.9 46.4,2.9 C52.8065,2.90001 58,8.0935 58,14.5 C58,20.9065 52.8065,26.1 46.4,26.1 C43.3173,26.1 40.5154,24.8975 38.4379,22.936 C34.2048,18.9407 30.2187,18.655 25.3987,24.0642 C22.7412,27.0901 18.8436,29 14.5,29 C6.49187,29 0,22.5081 0,14.5 Z" id="Path" fill="url(#linearGradient-1)"></path>
            <path d="M0,14.5 C0,6.49187 6.49187,0 14.5,0 C18.8417,0 22.7378,1.90824 25.3952,4.93177 C30.2168,10.345 34.2038,10.0602 38.4379,6.06395 C40.5154,4.10244 43.3173,2.9 46.4,2.9 C52.8065,2.90001 58,8.0935 58,14.5 C58,20.9065 52.8065,26.1 46.4,26.1 C43.3173,26.1 40.5154,24.8975 38.4379,22.936 C34.2048,18.9407 30.2187,18.655 25.3987,24.0642 C22.7412,27.0901 18.8436,29 14.5,29 C6.49187,29 0,22.5081 0,14.5 Z" id="Path" fill="url(#linearGradient-2)"></path>
            <path d="M0,14.5 C0,6.49187 6.49187,0 14.5,0 C18.8417,0 22.7378,1.90824 25.3952,4.93177 C30.2168,10.345 34.2038,10.0602 38.4379,6.06395 C40.5154,4.10244 43.3173,2.9 46.4,2.9 C52.8065,2.90001 58,8.0935 58,14.5 C58,20.9065 52.8065,26.1 46.4,26.1 C43.3173,26.1 40.5154,24.8975 38.4379,22.936 C34.2048,18.9407 30.2187,18.655 25.3987,24.0642 C22.7412,27.0901 18.8436,29 14.5,29 C6.49187,29 0,22.5081 0,14.5 Z" id="Path" fill="url(#radialGradient-3)"></path>
            <path d="M0,14.5 C0,6.49187 6.49187,0 14.5,0 C18.8417,0 22.7378,1.90824 25.3952,4.93177 C30.2168,10.345 34.2038,10.0602 38.4379,6.06395 C40.5154,4.10244 43.3173,2.9 46.4,2.9 C52.8065,2.90001 58,8.0935 58,14.5 C58,20.9065 52.8065,26.1 46.4,26.1 C43.3173,26.1 40.5154,24.8975 38.4379,22.936 C34.2048,18.9407 30.2187,18.655 25.3987,24.0642 C22.7412,27.0901 18.8436,29 14.5,29 C6.49187,29 0,22.5081 0,14.5 Z" id="Path" fill="url(#radialGradient-4)"></path>
            <path d="M0,14.5 C0,6.49187 6.49187,0 14.5,0 C18.8417,0 22.7378,1.90824 25.3952,4.93177 C30.2168,10.345 34.2038,10.0602 38.4379,6.06395 C40.5154,4.10244 43.3173,2.9 46.4,2.9 C52.8065,2.90001 58,8.0935 58,14.5 C58,20.9065 52.8065,26.1 46.4,26.1 C43.3173,26.1 40.5154,24.8975 38.4379,22.936 C34.2048,18.9407 30.2187,18.655 25.3987,24.0642 C22.7412,27.0901 18.8436,29 14.5,29 C6.49187,29 0,22.5081 0,14.5 Z" id="Path" fill="url(#radialGradient-5)"></path>
        </g>
    </g>
</svg>