<?xml version="1.0" encoding="UTF-8"?>
<svg width="148px" height="34px" viewBox="0 0 148 34" version="1.1" xmlns="http://www.w3.org/2000/svg" xmlns:xlink="http://www.w3.org/1999/xlink">
    <title>Frame (4)</title>
    <g id="Page-1" stroke="none" stroke-width="1" fill="none" fill-rule="evenodd">
        <g id="Frame-(4)" fill-rule="nonzero">
            <polygon id="Path" fill="#3C2979" points="51.0611 22.7767 59.9471 22.7767 59.9471 20.357 53.996 20.357 53.996 8.8953 51.0611 8.8953"></polygon>
            <path d="M65.9678,22.9801 C69.1264,22.9801 71.092,20.8179 71.092,17.6119 C71.092,14.3855 69.1264,12.2301 65.9678,12.2301 C62.8093,12.2301 60.8437,14.3855 60.8437,17.6119 C60.8437,20.8179 62.8093,22.9801 65.9678,22.9801 Z M65.9814,20.7433 C64.5241,20.7433 63.7785,19.408 63.7785,17.5915 C63.7785,15.775 64.5241,14.433 65.9814,14.433 C67.4116,14.433 68.1571,15.775 68.1571,17.5915 C68.1571,19.408 67.4116,20.7433 65.9814,20.7433 Z" id="Shape" fill="#3C2979"></path>
            <path d="M77.0873,26.8978 C80.0629,26.8978 82.1776,25.5421 82.1776,22.8784 L82.1776,12.3657 L79.3105,12.3657 L79.3105,14.1144 L79.2021,14.1144 C78.8157,13.2671 77.9685,12.2301 76.2265,12.2301 C73.9423,12.2301 72.0106,14.006 72.0106,17.5509 C72.0106,21.0144 73.8881,22.6276 76.2333,22.6276 C77.8939,22.6276 78.8225,21.7939 79.2021,20.9331 L79.3241,20.9331 L79.3241,22.8377 C79.3241,24.2679 78.409,24.8237 77.1551,24.8237 C75.8808,24.8237 75.2369,24.2679 74.9997,23.6375 L72.3292,23.9968 C72.6748,25.637 74.2812,26.8978 77.0873,26.8978 Z M77.1483,20.4586 C75.7317,20.4586 74.959,19.3335 74.959,17.5373 C74.959,15.7682 75.7182,14.5279 77.1483,14.5279 C78.5514,14.5279 79.3376,15.714 79.3376,17.5373 C79.3376,19.3741 78.5378,20.4586 77.1483,20.4586 Z" id="Shape" fill="#3C2979"></path>
            <path d="M88.6067,22.9801 C91.7653,22.9801 93.7309,20.8179 93.7309,17.6119 C93.7309,14.3855 91.7653,12.2301 88.6067,12.2301 C85.4482,12.2301 83.4825,14.3855 83.4825,17.6119 C83.4825,20.8179 85.4482,22.9801 88.6067,22.9801 Z M88.6203,20.7433 C87.163,20.7433 86.4174,19.408 86.4174,17.5915 C86.4174,15.775 87.163,14.433 88.6203,14.433 C90.0504,14.433 90.796,15.775 90.796,17.5915 C90.796,19.408 90.0504,20.7433 88.6203,20.7433 Z" id="Shape" fill="#3C2979"></path>
            <path d="M95.0358,22.7767 L97.9232,22.7767 L97.9232,12.3657 L95.0358,12.3657 L95.0358,22.7767 Z M96.4863,11.0236 C97.3471,11.0236 98.052,10.3662 98.052,9.5596 C98.052,8.7598 97.3471,8.1023 96.4863,8.1023 C95.6323,8.1023 94.9273,8.7598 94.9273,9.5596 C94.9273,10.3662 95.6323,11.0236 96.4863,11.0236 Z" id="Shape" fill="#3C2979"></path>
            <path d="M99.664,26.6809 L102.551,26.6809 L102.551,21.1093 L102.639,21.1093 C103.039,21.9769 103.913,22.9462 105.594,22.9462 C107.967,22.9462 109.817,21.0687 109.817,17.5847 C109.817,14.006 107.885,12.2301 105.601,12.2301 C103.859,12.2301 103.026,13.2671 102.639,14.1144 L102.51,14.1144 L102.51,12.3657 L99.664,12.3657 L99.664,26.6809 Z M102.49,17.5712 C102.49,15.714 103.276,14.5279 104.679,14.5279 C106.11,14.5279 106.869,15.7682 106.869,17.5712 C106.869,19.3877 106.096,20.6484 104.679,20.6484 C103.29,20.6484 102.49,19.4284 102.49,17.5712 Z" id="Shape" fill="#3C2979"></path>
            <path d="M119.832,15.3344 C119.574,13.4163 118.029,12.2301 115.399,12.2301 C112.735,12.2301 110.98,13.4637 110.986,15.47 C110.98,17.029 111.962,18.0389 113.996,18.4456 L115.799,18.8048 C116.707,18.9878 117.121,19.3199 117.134,19.8418 C117.121,20.4586 116.45,20.8992 115.44,20.8992 C114.409,20.8992 113.725,20.4586 113.549,19.6114 L110.709,19.7605 C110.98,21.7532 112.674,22.9801 115.433,22.9801 C118.13,22.9801 120.062,21.6041 120.069,19.5504 C120.062,18.0457 119.079,17.1442 117.06,16.7307 L115.175,16.3511 C114.206,16.141 113.847,15.8089 113.854,15.3073 C113.847,14.6838 114.552,14.2771 115.446,14.2771 C116.45,14.2771 117.046,14.8261 117.188,15.4971 L119.832,15.3344 Z" id="Path" fill="#3C2979"></path>
            <path d="M127.991,18.3439 C127.998,19.7402 127.042,20.4722 126.005,20.4722 C124.914,20.4722 124.209,19.7063 124.202,18.4794 L124.202,12.3657 L121.315,12.3657 L121.315,18.9946 C121.321,21.4279 122.745,22.9123 124.839,22.9123 C126.405,22.9123 127.53,22.1057 127.998,20.8856 L128.106,20.8856 L128.106,22.7767 L130.878,22.7767 L130.878,12.3657 L127.991,12.3657 L127.991,18.3439 Z" id="Path" fill="#3C2979"></path>
            <path d="M132.615,22.7767 L135.503,22.7767 L135.503,16.5274 C135.503,15.3751 136.235,14.6092 137.197,14.6092 C138.146,14.6092 138.783,15.2599 138.783,16.2834 L138.783,22.7767 L141.583,22.7767 L141.583,16.4189 C141.583,15.3412 142.2,14.6092 143.25,14.6092 C144.172,14.6092 144.863,15.1853 144.863,16.3444 L144.863,22.7767 L147.744,22.7767 L147.744,15.775 C147.744,13.5179 146.402,12.2301 144.463,12.2301 C142.938,12.2301 141.752,13.0096 141.325,14.2025 L141.217,14.2025 C140.885,12.996 139.82,12.2301 138.39,12.2301 C136.987,12.2301 135.923,12.9757 135.489,14.2025 L135.367,14.2025 L135.367,12.3657 L132.615,12.3657 L132.615,22.7767 Z" id="Path" fill="#3C2979"></path>
            <path d="M15.123,0 L24.1218,0 L20.5097,10.0943 C14.1521,11.2115 9.2895,17.3625 9.2895,24.783 C9.2895,28.1305 10.2791,31.2197 11.949,33.7049 L6e-05,33.7049 L10.9237,3.17808 C11.6105,1.25863 13.2736,0 15.123,0 Z" id="Path" fill="#341492"></path>
            <polygon id="Path" fill-opacity="0.3" fill="#000000" points="24.1216 0 21.583 7.09426 20.8181 0"></polygon>
            <path d="M29.8169,0 L20.8181,0 L24.415,10.0517 C30.8991,11.0452 35.8942,17.262 35.8942,24.783 C35.8942,28.1305 34.9046,31.2197 33.2347,33.7049 L44.9398,33.7049 L34.0162,3.17809 C33.3294,1.25863 31.6663,0 29.8169,0 Z" id="Path" fill="#4C28B5"></path>
            <path d="M13.5181,32.7334 C11.9803,30.5434 11.0633,27.7829 11.0633,24.7829 C11.0633,17.6655 16.2249,11.8958 22.592,11.8958 C28.9592,11.8958 34.1208,17.6655 34.1208,24.7829 C34.1208,27.7829 33.2038,30.5434 31.666,32.7334 C29.1415,30.854 25.9987,29.7395 22.592,29.7395 C19.1854,29.7395 16.0426,30.854 13.5181,32.7334 Z" id="Path" fill="#4C28B5"></path>
        </g>
    </g>
</svg>