<?xml version="1.0" encoding="UTF-8"?>
<svg width="96px" height="46px" viewBox="0 0 96 46" version="1.1" xmlns="http://www.w3.org/2000/svg" xmlns:xlink="http://www.w3.org/1999/xlink">
    <title>Frame</title>
    <g id="Page-1" stroke="none" stroke-width="1" fill="none" fill-rule="evenodd">
        <g id="Frame" fill="#394149" fill-rule="nonzero">
            <polygon id="Path" points="0.58517 27.5165 3.41809 27.5165 3.41809 41.4072 0.58517 41.4072"></polygon>
            <path d="M5.06117,36.6479 C5.0593,35.6502 5.35345,34.6743 5.9064,33.8438 C6.45935,33.0133 7.24624,32.3655 8.1675,31.9824 C9.0887,31.5993 10.1029,31.4981 11.0817,31.6916 C12.0605,31.8851 12.9599,32.3646 13.666,33.0695 C14.3722,33.7743 14.8534,34.6728 15.0487,35.6512 C15.2441,36.6296 15.1448,37.644 14.7634,38.566 C14.382,39.4879 13.7357,40.276 12.9062,40.8305 C12.0768,41.3851 11.1015,41.681 10.1038,41.681 C9.4402,41.6886 8.7819,41.5637 8.1673,41.3135 C7.55272,41.0634 6.99423,40.6931 6.52459,40.2243 C6.05495,39.7556 5.6836,39.1978 5.43231,38.5836 C5.18102,37.9695 5.05484,37.3114 5.06117,36.6479 Z M12.2945,36.6479 C12.2834,36.2172 12.1455,35.7993 11.8981,35.4466 C11.6507,35.0938 11.3048,34.8219 10.9036,34.6647 C10.5024,34.5075 10.0638,34.4722 9.6427,34.563 C9.2215,34.6538 8.8365,34.8668 8.5357,35.1753 C8.235,35.4838 8.0319,35.8742 7.95184,36.2976 C7.87179,36.7209 7.91837,37.1585 8.0857,37.5555 C8.2531,37.9525 8.5338,38.2914 8.8927,38.5297 C9.2517,38.768 9.6729,38.8952 10.1038,38.8953 C10.3985,38.9036 10.6918,38.8507 10.9651,38.7399 C11.2384,38.6291 11.4858,38.4629 11.6917,38.2517 C11.8975,38.0405 12.0574,37.789 12.1611,37.513 C12.2649,37.2369 12.3103,36.9424 12.2945,36.6479 Z" id="Shape"></path>
            <path d="M26.5346,31.8886 L26.5346,40.935 C26.5346,44.1362 24.0322,45.4866 21.5015,45.4866 C20.6116,45.5528 19.7206,45.3728 18.9261,44.9664 C18.1316,44.56 17.4643,43.9428 16.9972,43.1825 L19.4335,41.7755 C19.6268,42.1651 19.9327,42.4878 20.3115,42.7016 C20.6903,42.9154 21.1246,43.0106 21.5582,42.9747 C21.8434,43.0223 22.1358,43.0037 22.4128,42.9203 C22.6898,42.837 22.9439,42.6912 23.1556,42.4941 C23.3672,42.297 23.5308,42.0539 23.6337,41.7836 C23.7366,41.5133 23.776,41.223 23.7489,40.935 L23.7489,40.0568 C23.4159,40.4666 22.9909,40.7921 22.5086,41.007 C22.0263,41.2219 21.5001,41.3202 20.9727,41.2939 C19.6904,41.2939 18.4607,40.7845 17.5539,39.8778 C16.6472,38.9711 16.1378,37.7413 16.1378,36.459 C16.1378,35.1767 16.6472,33.947 17.5539,33.0403 C18.4607,32.1336 19.6904,31.6242 20.9727,31.6242 C21.4998,31.6001 22.0252,31.6994 22.5072,31.9141 C22.9892,32.1289 23.4144,32.4532 23.7489,32.8612 L23.7489,31.9169 L26.5346,31.8886 Z M23.7489,36.459 C23.7678,35.9998 23.6488,35.5454 23.4074,35.1542 C23.1659,34.7631 22.813,34.4531 22.394,34.2642 C21.975,34.0752 21.509,34.0159 21.056,34.0939 C20.603,34.1718 20.1837,34.3835 19.852,34.7016 C19.5202,35.0198 19.2912,35.4299 19.1944,35.8792 C19.0975,36.3285 19.1373,36.7966 19.3086,37.2231 C19.4799,37.6497 19.7748,38.0152 20.1555,38.2728 C20.5362,38.5305 20.9852,38.6683 21.4448,38.6687 C21.7449,38.6899 22.046,38.6481 22.3288,38.5458 C22.6117,38.4435 22.87,38.2832 23.0871,38.075 C23.3041,37.8668 23.4752,37.6154 23.5892,37.3371 C23.7032,37.0588 23.7576,36.7597 23.7489,36.459 Z" id="Shape"></path>
            <path d="M28.1683,36.6479 C28.1664,35.6502 28.4606,34.6743 29.0135,33.8438 C29.5665,33.0133 30.3534,32.3655 31.2746,31.9824 C32.1958,31.5993 33.21,31.4981 34.1888,31.6916 C35.1676,31.8851 36.067,32.3646 36.7732,33.0695 C37.4793,33.7743 37.9605,34.6728 38.1559,35.6512 C38.3512,36.6296 38.2519,37.644 37.8705,38.566 C37.4891,39.4879 36.8428,40.276 36.0134,40.8305 C35.1839,41.3851 34.2086,41.681 33.2109,41.681 C32.5474,41.6886 31.889,41.5637 31.2744,41.3135 C30.6598,41.0634 30.1013,40.6931 29.6317,40.2243 C29.1621,39.7556 28.7907,39.1978 28.5394,38.5836 C28.2881,37.9695 28.1619,37.3114 28.1683,36.6479 Z M35.4017,36.6479 C35.3905,36.2172 35.2526,35.7993 35.0052,35.4466 C34.7578,35.0938 34.4119,34.8219 34.0107,34.6647 C33.6096,34.5075 33.171,34.4722 32.7498,34.563 C32.3286,34.6538 31.9436,34.8668 31.6428,35.1753 C31.3421,35.4838 31.139,35.8742 31.0589,36.2976 C30.9789,36.7209 31.0255,37.1585 31.1928,37.5555 C31.3602,37.9525 31.6409,38.2914 31.9998,38.5297 C32.3588,38.768 32.78,38.8952 33.2109,38.8953 C33.5041,38.9009 33.7953,38.8461 34.0664,38.7341 C34.3374,38.6221 34.5825,38.4555 34.7863,38.2446 C34.9901,38.0338 35.1482,37.7831 35.2509,37.5084 C35.3535,37.2337 35.3984,36.9407 35.3828,36.6479 L35.4017,36.6479 Z" id="Shape"></path>
            <path d="M39.5661,29.339 C39.5661,28.9991 39.6669,28.6668 39.8557,28.3842 C40.0446,28.1016 40.313,27.8813 40.627,27.7512 C40.9411,27.6211 41.2866,27.5871 41.62,27.6534 C41.9534,27.7197 42.2596,27.8834 42.5,28.1237 C42.7404,28.3641 42.904,28.6703 42.9703,29.0037 C43.0367,29.3371 43.0026,29.6827 42.8726,29.9967 C42.7425,30.3107 42.5222,30.5792 42.2396,30.768 C41.9569,30.9568 41.6247,31.0576 41.2847,31.0576 C40.8297,31.0552 40.394,30.8733 40.0722,30.5515 C39.7504,30.2298 39.5686,29.7941 39.5661,29.339 Z M39.8588,31.8886 L42.6917,31.8886 L42.6917,41.4072 L39.8588,41.4072 L39.8588,31.8886 Z" id="Shape"></path>
            <path d="M55.0431,36.6479 C55.0774,37.2771 54.987,37.9069 54.777,38.501 C54.5669,39.0951 54.2415,39.6418 53.8193,40.1096 C53.3971,40.5774 52.8866,40.9571 52.3171,41.2268 C51.7476,41.4965 51.1304,41.6509 50.501,41.6811 C49.9726,41.7064 49.445,41.6156 48.9556,41.4149 C48.4661,41.2142 48.0266,40.9086 47.6681,40.5196 L47.6681,45.2411 L44.8352,45.2411 L44.8352,31.8886 L47.6681,31.8886 L47.6681,32.7857 C48.0266,32.3967 48.4661,32.0911 48.9556,31.8904 C49.445,31.6897 49.9726,31.5989 50.501,31.6242 C51.1296,31.6544 51.746,31.8085 52.3148,32.0776 C52.8837,32.3468 53.3938,32.7256 53.8158,33.1924 C54.2379,33.6592 54.5635,34.2047 54.7741,34.7977 C54.9848,35.3907 55.0762,36.0195 55.0431,36.6479 Z M52.2102,36.6479 C52.199,36.2047 52.058,35.7745 51.8047,35.4106 C51.5514,35.0468 51.197,34.7651 50.7853,34.6007 C50.3736,34.4362 49.9226,34.3961 49.4884,34.4854 C49.0541,34.5746 48.6555,34.7893 48.342,35.1028 C48.0285,35.4163 47.8139,35.8148 47.7246,36.2491 C47.6354,36.6834 47.6755,37.1343 47.8399,37.546 C48.0044,37.9577 48.286,38.3122 48.6499,38.5654 C49.0138,38.8187 49.444,38.9597 49.8872,38.9709 C50.1965,38.9906 50.5064,38.9438 50.7962,38.8338 C51.0859,38.7237 51.3487,38.5529 51.567,38.3329 C51.7852,38.1128 51.9539,37.8486 52.0616,37.558 C52.1692,37.2674 52.2135,36.9571 52.1913,36.6479 L52.2102,36.6479 Z" id="Shape"></path>
            <path d="M63.863,38.5554 C63.863,40.7462 61.9744,41.681 59.8969,41.681 C59.067,41.7545 58.2341,41.5779 57.5054,41.174 C56.7768,40.7701 56.1856,40.1574 55.8081,39.4147 L58.2822,38.0077 C58.3826,38.3512 58.5976,38.65 58.8913,38.8544 C59.1851,39.0588 59.5399,39.1566 59.8969,39.1314 C60.5863,39.1314 60.9262,38.9142 60.9262,38.5365 C60.9262,37.4883 56.2047,38.0455 56.2047,34.7593 C56.2047,32.6818 57.9611,31.6336 59.9819,31.6336 C60.7276,31.611 61.4658,31.7881 62.12,32.1468 C62.7742,32.5054 63.3205,33.0325 63.7025,33.6733 L61.219,34.9765 C61.1093,34.7271 60.9295,34.5149 60.7015,34.3657 C60.4735,34.2165 60.2072,34.1367 59.9347,34.136 C59.4437,34.136 59.1415,34.3249 59.1415,34.6743 C59.1793,35.7602 63.863,35.0331 63.863,38.5554 Z" id="Path"></path>
            <path d="M74.2881,31.8886 L74.2881,41.4072 L71.4551,41.4072 L71.4551,40.5196 C71.1256,40.914 70.7074,41.2248 70.2347,41.4267 C69.7621,41.6286 69.2483,41.7157 68.7355,41.6811 C66.8469,41.6811 65.1755,40.3118 65.1755,37.7339 L65.1755,31.8886 L68.0084,31.8886 L68.0084,37.3184 C67.9835,37.5498 68.0105,37.7838 68.0873,38.0035 C68.1641,38.2232 68.2888,38.423 68.4525,38.5885 C68.6161,38.754 68.8146,38.8809 69.0334,38.9601 C69.2522,39.0394 69.486,39.0688 69.7176,39.0465 C70.7564,39.0465 71.4835,38.4421 71.4835,37.0918 L71.4835,31.8886 L74.2881,31.8886 Z" id="Path"></path>
            <path d="M90.6623,35.5713 L90.6623,41.4071 L87.8293,41.4071 L87.8293,35.8169 C87.8293,34.8726 87.3666,34.2493 86.4601,34.2493 C85.5536,34.2493 84.9681,34.9198 84.9681,36.0435 L84.9681,41.4071 L82.1352,41.4071 L82.1352,35.8169 C82.1352,34.8726 81.6819,34.2493 80.7659,34.2493 C79.85,34.2493 79.2834,34.9198 79.2834,36.0435 L79.2834,41.4071 L76.4505,41.4071 L76.4505,31.8886 L79.2834,31.8886 L79.2834,32.7668 C79.5795,32.3789 79.9678,32.0712 80.4131,31.8717 C80.8584,31.6721 81.3465,31.587 81.833,31.6242 C82.3216,31.6004 82.8081,31.7037 83.2449,31.9237 C83.6818,32.1438 84.0542,32.4733 84.326,32.8801 C84.642,32.4548 85.0607,32.1165 85.5429,31.8969 C86.0251,31.6773 86.5551,31.5834 87.0833,31.6242 C89.2364,31.6242 90.6623,33.1917 90.6623,35.5713 Z" id="Path"></path>
            <path d="M93.0798,31.832 C94.248,31.832 95.195,30.8849 95.195,29.7167 C95.195,28.5485 94.248,27.6015 93.0798,27.6015 C91.9116,27.6015 90.9645,28.5485 90.9645,29.7167 C90.9645,30.8849 91.9116,31.832 93.0798,31.832 Z" id="Path"></path>
            <path d="M32.6443,20.3115 C38.1151,20.3115 42.55,15.8765 42.55,10.4057 C42.55,4.93493 38.1151,0.49997 32.6443,0.49997 C27.1735,0.49997 22.7385,4.93493 22.7385,10.4057 C22.7385,15.8765 27.1735,20.3115 32.6443,20.3115 Z" id="Path"></path>
            <path d="M54.7882,20.3115 C60.259,20.3115 64.6939,15.8765 64.6939,10.4057 C64.6939,4.93493 60.259,0.49997 54.7882,0.49997 C49.3174,0.49997 44.8824,4.93493 44.8824,10.4057 C44.8824,15.8765 49.3174,20.3115 54.7882,20.3115 Z" id="Path"></path>
            <polygon id="Path" points="20.4061 0.49997 0.60406 0.49997 0.60406 20.302 20.4061 20.302"></polygon>
        </g>
    </g>
</svg>