<?xml version="1.0" encoding="UTF-8"?>
<svg width="107px" height="17px" viewBox="0 0 107 17" version="1.1" xmlns="http://www.w3.org/2000/svg" xmlns:xlink="http://www.w3.org/1999/xlink">
    <title>Vector (3)</title>
    <g id="Page-1" stroke="none" stroke-width="1" fill="none" fill-rule="evenodd">
        <g id="Vector-(3)" fill="#394149" fill-rule="nonzero">
            <path d="M0.23,0.39004 L2.23,0.39004 L2.23,14.31 L8.23,14.31 L8.23,16.31 L0.23,16.31 L0.23,0.39004 Z M14.46,0.39004 C15.6467,0.39004 16.8067,0.74194 17.7934,1.40124 C18.7801,2.06054 19.5492,2.99754 20.0033,4.09394 C20.4574,5.19034 20.5762,6.39674 20.3447,7.56054 C20.1132,8.72444 19.5418,9.79354 18.7026,10.6326 C17.8635,11.4718 16.7944,12.0432 15.6305,12.2747 C14.4667,12.5062 13.2603,12.3874 12.1639,11.9333 C11.0675,11.4791 10.1305,10.7101 9.4712,9.72344 C8.8119,8.73674 8.46,7.57674 8.46,6.39004 C8.46,5.60214 8.6152,4.82184 8.9167,4.09394 C9.2182,3.36594 9.6602,2.70454 10.2174,2.14744 C10.7745,1.59024 11.4359,1.14824 12.1639,0.84674 C12.8918,0.54524 13.6721,0.39004 14.46,0.39004 Z M14.46,10.39 C15.2511,10.39 16.0245,10.1554 16.6823,9.71594 C17.3401,9.27634 17.8528,8.65164 18.1555,7.92074 C18.4583,7.18984 18.5375,6.38564 18.3831,5.60964 C18.2288,4.83374 17.8478,4.12104 17.2884,3.56164 C16.729,3.00224 16.0163,2.62124 15.2404,2.46694 C14.4644,2.31254 13.6602,2.39174 12.9293,2.69454 C12.1984,2.99724 11.5736,3.50994 11.1341,4.16774 C10.6946,4.82554 10.46,5.59894 10.46,6.39003614 C10.4653,7.44744 10.889,8.45974 11.6386,9.20554 C12.3882,9.95134 13.4026,10.37 14.46,10.37 L14.46,10.39 Z M10.46,14.33 L18.46,14.33 L18.46,16.33 L10.46,16.33 L10.46,14.33 Z M36.06,16.33 L34.06,16.33 L34.06,14.9 C32.7702,15.8028 31.2344,16.288 29.66,16.29 C28.3175,16.299 26.9943,15.97 25.8124,15.3333 C24.6304,14.6965 23.6277,13.7726 22.8967,12.6466 C22.1656,11.5206 21.7296,10.2287 21.629,8.88994 C21.5283,7.55124 21.7662,6.20864 22.3207,4.98604 C22.8752,3.76334 23.7285,2.69984 24.8019,1.89364 C25.8754,1.08734 27.1345,0.56414 28.4632,0.37234 C29.792,0.18044 31.1477,0.32614 32.4053,0.79584 C33.663,1.26554 34.7823,2.04414 35.66,3.06004 L34.19,4.37004 C33.5224,3.62364 32.6787,3.05624 31.7356,2.71954 C30.7926,2.38274 29.7803,2.28734 28.791,2.44204 C27.8016,2.59674 26.8668,2.99664 26.0715,3.60514 C25.2763,4.21374 24.646,5.01154 24.2382,5.92614 C23.8303,6.84064 23.6578,7.84264 23.7364,8.84094 C23.815,9.83924 24.1421,10.8019 24.6881,11.6413 C25.2341,12.4807 25.9814,13.1702 26.8621,13.6468 C27.7427,14.1234 28.7287,14.372 29.73,14.37 C30.561,14.3717 31.3826,14.1939 32.1386,13.8487 C32.8945,13.5035 33.567,12.9991 34.11,12.37 L28.71,12.37 L28.71,10.37 L36.08,10.37 L36.06,16.33 Z M43.42,0.43004 C44.6067,0.43004 45.7667,0.78194 46.7534,1.44124 C47.7401,2.10054 48.5092,3.03754 48.9633,4.13394 C49.4174,5.23034 49.5362,6.43674 49.3047,7.60054 C49.0732,8.76444 48.5018,9.83354 47.6626,10.6726 C46.8235,11.5118 45.7544,12.0832 44.5905,12.3147 C43.4267,12.5462 42.2203,12.4274 41.1239,11.9733 C40.0275,11.5191 39.0905,10.7501 38.4312,9.76344 C37.7719,8.77674 37.42,7.61674 37.42,6.43004 C37.4147,5.63704 37.5667,4.85094 37.8671,4.11704 C38.1675,3.38314 38.6104,2.71604 39.1702,2.15444 C39.73,1.59274 40.3956,1.14764 41.1285,0.84474 C41.8614,0.54194 42.647,0.38734 43.44,0.390005236 L43.42,0.43004 Z M43.42,10.43 C44.2111,10.43 44.9845,10.1954 45.6423,9.75594 C46.3001,9.31634 46.8128,8.69164 47.1155,7.96074 C47.4183,7.22984 47.4975,6.42564 47.3431,5.64964 C47.1888,4.87374 46.8078,4.16104 46.2484,3.60164 C45.689,3.04224 44.9763,2.66124 44.2004,2.50694 C43.4244,2.35254 42.6202,2.43174 41.8893,2.73454 C41.1584,3.03724 40.5336,3.54994 40.0941,4.20774 C39.6546,4.86554 39.42,5.63894 39.42,6.43003614 C39.4358,7.48394 39.8669,8.48904 40.6197,9.22684 C41.3724,9.96454 42.386,10.3754 43.44,10.37 L43.42,10.43 Z M39.42,14.37 L47.42,14.37 L47.42,16.37 L39.42,16.37 L39.42,14.37 Z M51.55,0.39004 L53.55,0.39004 L53.55,16.29 L51.55,16.29 L51.55,0.39004 Z M56.32,0.39004 L58.32,0.39004 C58.423,0.37914 58.5269,0.37914 58.63,0.39004 C59.4676,0.29914 60.315,0.38574 61.1169,0.64404 C61.9188,0.90244 62.6574,1.32674 63.2844,1.88944 C63.9115,2.45214 64.413,3.14064 64.7563,3.91004 C65.0997,4.67944 65.2771,5.51254 65.2771,6.35504 C65.2771,7.19754 65.0997,8.03064 64.7563,8.80004 C64.413,9.56944 63.9115,10.2579 63.2844,10.8206 C62.6574,11.3833 61.9188,11.8076 61.1169,12.066 C60.315,12.3243 59.4676,12.4109 58.63,12.32 L58.32,12.32 L58.32,16.32 L56.32,16.32 L56.32,0.39004 Z M58.32,2.39004 L58.32,10.3 L58.63,10.3 C59.1949,10.3752 59.7693,10.3289 60.3149,10.164 C60.8604,9.99924 61.3644,9.71974 61.7931,9.34434 C62.2219,8.96894 62.5654,8.50624 62.8008,7.98724 C63.0362,7.46824 63.158,6.90494 63.158,6.33504292 C63.158,5.76514 63.0362,5.20184 62.8008,4.68284 C62.5654,4.16384 62.2219,3.70114 61.7931,3.32574 C61.3644,2.95024 60.8604,2.67084 60.3149,2.50594 C59.7693,2.34114 59.1949,2.29484 58.63,2.37004 C58.5211,2.38134 58.4137,2.40484 58.31,2.44004 L58.32,2.39004 Z M72.73,1.54004 L71.25,2.71004 C70.9947,2.44324 70.6685,2.25484 70.3098,2.16704 C69.9511,2.07924 69.5748,2.09564 69.2251,2.21434 C68.8753,2.33294 68.5668,2.54894 68.3356,2.83694 C68.1044,3.12494 67.9602,3.47294 67.92,3.84004 L67.92,4.00004 C67.92,4.88004 68.53,5.47004 69.72,5.55004 C74.3,5.83004 76.39998,7.98004 76.39998,10.82 L76.39998,11 C76.28168,12.124 75.8431,13.1904 75.1363,14.0724 C74.4295,14.9544 73.4842,15.6147 72.413,15.975 C71.3417,16.3352 70.1895,16.3802 69.0934,16.1045 C67.9973,15.8289 67.0034,15.2442 66.23,14.42 L67.76,13.24 C68.1161,13.6217 68.551,13.9213 69.0345,14.1182 C69.518,14.315 70.0385,14.4044 70.56,14.38 C71.5232,14.4308 72.4687,14.1075 73.1991,13.4776 C73.9296,12.8478 74.3885,11.9601 74.48,11 L74.48,10.86 C74.48,8.19004 71.86,7.70004 69.59,7.48004 C67.49,7.28004 65.98,5.97004 65.98,4.08004 L65.98,4.00004 C66.054,3.01604 66.5031,2.09804 67.2344,1.43564 C67.9657,0.77314 68.9235,0.41674 69.91,0.44004 C70.4328,0.42464 70.9529,0.51894 71.437,0.71704 C71.921,0.91514 72.3581,1.21254 72.72,1.59004 L72.73,1.54004 Z M84.22998,14.26 C86.719978,14.26 88.68999,11.57 88.68999,8.26004 L88.68999,0.26004 L90.68999,0.26004 L90.68999,8.26004 C90.68999,12.66 87.80997,16.21 84.26997,16.21 C80.72997,16.21 77.84998,12.66 77.84998,8.26004 L77.84998,0.26004 L79.84998,0.26004 L79.84998,8.26004 C79.76997,11.62 81.73998,14.31 84.21999,14.31 L84.22998,14.26 Z M106.04,16.26 L104.04,16.26 L104.04,6.36004 L99.43,12.36 L94.81998,6.36004 L94.81998,16.29 L92.81998,16.29 L92.81998,0.39004 L99.42,9.08004 L106.02,0.39004 L106.04,16.26 Z" id="Shape"></path>
        </g>
    </g>
</svg>