<?xml version="1.0" encoding="UTF-8"?>
<svg width="160px" height="30px" viewBox="0 0 160 30" version="1.1" xmlns="http://www.w3.org/2000/svg" xmlns:xlink="http://www.w3.org/1999/xlink">
    <title>Frame (1)</title>
    <g id="Page-1" stroke="none" stroke-width="1" fill="none" fill-rule="evenodd">
        <g id="Frame-(1)" fill-rule="nonzero">
            <polygon id="Path" fill="#726BEA" points="38.5656 1.27466 42.5603 1.27466 42.5603 23.0637 49.1333 23.0637 49.1333 26.6953 38.5656 26.6953"></polygon>
            <path d="M56.6812,27.0584 C54.7202,27.0584 53.2192,26.5016 52.1781,25.3879 C51.1371,24.2742 50.6166,22.7006 50.6166,20.6669 L50.6166,7.30297 C50.6166,5.26932 51.1371,3.69566 52.1781,2.582 C53.2192,1.46833 54.7202,0.911499 56.6812,0.911499 C58.6422,0.911499 60.1432,1.46833 61.1843,2.582 C62.2253,3.69566 62.7458,5.26932 62.7458,7.30297 L62.7458,20.6669 C62.7458,22.7006 62.2253,24.2742 61.1843,25.3879 C60.1432,26.5016 58.6422,27.0584 56.6812,27.0584 Z M56.6812,23.4269 C58.0612,23.4269 58.7512,22.5916 58.7512,20.9211 L58.7512,7.04876 C58.7512,5.37826 58.0612,4.54301 56.6812,4.54301 C55.3012,4.54301 54.6112,5.37826 54.6112,7.04876 L54.6112,20.9211 C54.6112,22.5916 55.3012,23.4269 56.6812,23.4269 Z" id="Shape" fill="#726BEA"></path>
            <path d="M71.1125,27.0584 C69.1757,27.0584 67.6989,26.5137 66.682,25.4242 C65.6652,24.3106 65.1568,22.7248 65.1568,20.6669 L65.1568,7.30297 C65.1568,5.24511 65.6652,3.67145 66.682,2.582 C67.6989,1.46833 69.1757,0.911499 71.1125,0.911499 C73.0493,0.911499 74.5261,1.46833 75.5429,2.582 C76.5598,3.67145 77.0682,5.24511 77.0682,7.30297 L77.0682,9.48187 L73.2914,9.48187 L73.2914,7.04876 C73.2914,5.37826 72.6014,4.54301 71.2214,4.54301 C69.8415,4.54301 69.1515,5.37826 69.1515,7.04876 L69.1515,20.9575 C69.1515,22.6038 69.8415,23.4269 71.2214,23.4269 C72.6014,23.4269 73.2914,22.6038 73.2914,20.9575 L73.2914,15.9823 L71.2941,15.9823 L71.2941,12.3508 L77.0682,12.3508 L77.0682,20.6669 C77.0682,22.7248 76.5598,24.3106 75.5429,25.4242 C74.5261,26.5137 73.0493,27.0584 71.1125,27.0584 Z" id="Path" fill="#726BEA"></path>
            <path d="M85.407,27.0584 C83.446,27.0584 81.945,26.5016 80.904,25.3879 C79.8629,24.2742 79.3424,22.7006 79.3424,20.6669 L79.3424,7.30297 C79.3424,5.26932 79.8629,3.69566 80.904,2.582 C81.945,1.46833 83.446,0.911499 85.407,0.911499 C87.3681,0.911499 88.8691,1.46833 89.9101,2.582 C90.9512,3.69566 91.4717,5.26932 91.4717,7.30297 L91.4717,20.6669 C91.4717,22.7006 90.9512,24.2742 89.9101,25.3879 C88.8691,26.5016 87.3681,27.0584 85.407,27.0584 Z M85.407,23.4269 C86.787,23.4269 87.477,22.5916 87.477,20.9211 L87.477,7.04876 C87.477,5.37826 86.787,4.54301 85.407,4.54301 C84.0271,4.54301 83.3371,5.37826 83.3371,7.04876 L83.3371,20.9211 C83.3371,22.5916 84.0271,23.4269 85.407,23.4269 Z" id="Shape" fill="#726BEA"></path>
            <polygon id="Path" fill="#4F46E5" points="94.1808 1.27466 98.1755 1.27466 98.1755 26.6953 94.1808 26.6953"></polygon>
            <path d="M101.167,1.27466 L107.05,1.27466 C109.035,1.27466 110.524,1.80728 111.517,2.87253 C112.51,3.93777 113.006,5.49932 113.006,7.55718 L113.006,10.0629 C113.006,12.1208 112.51,13.6823 111.517,14.7476 C110.524,15.8128 109.035,16.3454 107.05,16.3454 L105.162,16.3454 L105.162,26.6953 L101.167,26.6953 L101.167,1.27466 Z M107.05,12.7139 C107.704,12.7139 108.188,12.5323 108.503,12.1692 C108.842,11.806 109.011,11.1887 109.011,10.3171 L109.011,7.30298 C109.011,6.43141 108.842,5.81405 108.503,5.4509 C108.188,5.08775 107.704,4.90618 107.05,4.90618 L105.162,4.90618 L105.162,12.7139 L107.05,12.7139 Z" id="Shape" fill="#4F46E5"></path>
            <path d="M120.51,27.0584 C118.574,27.0584 117.109,26.5137 116.116,25.4242 C115.124,24.3106 114.627,22.7248 114.627,20.6669 L114.627,19.2143 L118.404,19.2143 L118.404,20.9575 C118.404,22.6038 119.094,23.4269 120.474,23.4269 C121.152,23.4269 121.66,23.2332 121.999,22.8459 C122.362,22.4343 122.544,21.7806 122.544,20.8848 C122.544,19.8196 122.302,18.8875 121.818,18.0886 C121.334,17.2654 120.438,16.2849 119.13,15.147 C117.484,13.6944 116.334,12.3871 115.68,11.225 C115.027,10.0387 114.7,8.70715 114.7,7.23034 C114.7,5.2209 115.208,3.67145 116.225,2.582 C117.242,1.46833 118.719,0.911499 120.656,0.911499 C122.568,0.911499 124.009,1.46833 124.977,2.582 C125.97,3.67145 126.466,5.24511 126.466,7.30297 L126.466,8.35611 L122.689,8.35611 L122.689,7.04876 C122.689,6.1772 122.52,5.54773 122.181,5.16037 C121.842,4.7488 121.346,4.54301 120.692,4.54301 C119.36,4.54301 118.695,5.35405 118.695,6.97613 C118.695,7.89611 118.937,8.75557 119.421,9.5545 C119.929,10.3534 120.837,11.3218 122.145,12.4597 C123.815,13.9123 124.965,15.2318 125.595,16.4181 C126.224,17.6044 126.539,18.9964 126.539,20.5943 C126.539,22.6764 126.018,24.2742 124.977,25.3879 C123.96,26.5016 122.471,27.0584 120.51,27.0584 Z" id="Path" fill="#4F46E5"></path>
            <path d="M134.64,27.0584 C132.703,27.0584 131.226,26.5137 130.209,25.4242 C129.192,24.3106 128.684,22.7248 128.684,20.6669 L128.684,1.27466 L132.679,1.27466 L132.679,20.9575 C132.679,21.829 132.848,22.4585 133.187,22.8459 C133.55,23.2332 134.059,23.4269 134.712,23.4269 C135.366,23.4269 135.862,23.2332 136.201,22.8459 C136.564,22.4585 136.746,21.829 136.746,20.9575 L136.746,1.27466 L140.595,1.27466 L140.595,20.6669 C140.595,22.7248 140.087,24.3106 139.07,25.4242 C138.053,26.5137 136.576,27.0584 134.64,27.0584 Z" id="Path" fill="#4F46E5"></path>
            <polygon id="Path" fill="#4F46E5" points="143.44 1.27466 149.142 1.27466 151.684 19.4685 151.756 19.4685 154.299 1.27466 160 1.27466 160 26.6953 156.223 26.6953 156.223 7.44824 156.151 7.44824 153.245 26.6953 149.904 26.6953 146.999 7.44824 146.927 7.44824 146.927 26.6953 143.44 26.6953"></polygon>
            <path d="M0,26.6953 C4.91448,26.6953 8.89841,22.7113 8.89841,17.7969 C8.89841,12.8824 4.91448,8.89844 0,8.89844 L0,15.1273 C1.47433,15.1273 2.66951,16.3225 2.66951,17.7969 C2.66951,19.2712 1.47433,20.4664 0,20.4664 L0,26.6953 Z" id="Path" fill="#726BEA"></path>
            <path d="M29.6614,11.8646 C28.1408,11.3829 26.5215,11.123 24.8414,11.123 C16.0363,11.123 8.89844,18.261 8.89844,27.066 C8.89844,27.9498 8.97036,28.8168 9.10862,29.6614 L19.0145,29.6614 C18.6609,28.8686 18.4643,27.9903 18.4643,27.066 C18.4643,23.544 21.3194,20.6888 24.8414,20.6888 C26.7664,20.6888 28.4921,21.5417 29.6614,22.8902 L29.6614,11.8646 Z" id="Path" fill="#A5B4FC"></path>
            <path d="M1.56451,0 C2.30225,6.67374 7.9603,11.8646 14.8307,11.8646 C21.701,11.8646 27.3591,6.67374 28.0968,0 L18.5513,0 C17.962,1.4773 16.5182,2.52121 14.8307,2.52121 C13.1431,2.52121 11.6994,1.4773 11.11,0 L1.56451,0 Z" id="Path" fill="#4F46E5"></path>
        </g>
    </g>
</svg>